<svg width="50" height="48" viewBox="0 0 50 48" fill="none" xmlns="http://www.w3.org/2000/svg">
<path d="M29.6795 15.8086C29.585 11.066 28.0987 7.90434 26.5179 6.32349C-2.99139 13.9116 -2.03162 24.5911 2.184 29.5093C2.85587 20.7791 10.3743 17.1839 18.1951 15.9971C22.6478 15.3213 26.2386 15.4263 29.6795 15.8086Z" fill="white"/>
<path d="M17.9913 15.8084C12.5523 15.0151 9.74517 17.4766 8.41094 18.9701C13.9744 48.9272 22.6389 49.5336 29.4884 46.3718C20.0042 45.318 18.3016 37.1515 17.6494 29.2681C17.2781 24.7798 17.3758 19.2154 17.9913 15.8084Z" fill="white"/>
<path d="M19.9191 32.1909C20.0137 36.9335 21.4999 40.0952 23.0807 41.676C52.59 34.0879 51.6302 23.4084 47.4146 18.4902C46.7428 27.2204 39.2243 30.8156 31.4035 32.0024C26.9508 32.6782 23.36 32.5732 19.9191 32.1909Z" fill="#007AFF"/>
<path d="M31.6074 32.1911C37.0463 32.9844 39.8535 30.5229 41.1877 29.0294C35.6242 -0.92767 26.9597 -1.53405 20.1102 1.62775C29.5945 2.68156 31.297 10.848 31.9492 18.7314C32.3206 23.2197 32.2228 28.7841 31.6074 32.1911Z" fill="#007AFF"/>
<circle cx="24.938" cy="24.2402" r="2.10837" fill="white"/>
</svg>
