<svg width="16" height="18" viewBox="0 0 16 18" fill="none" xmlns="http://www.w3.org/2000/svg">
<path d="M11.6239 3.88431L5.97934 3.67712C5.55655 3.66161 5.22702 4.02075 5.24335 4.47941C5.25968 4.93802 5.61567 5.32238 6.03848 5.33792L9.82752 5.47693L3.78668 12.028C3.49851 12.3405 3.51609 12.8662 3.82593 13.2023C4.13578 13.5383 4.62054 13.5573 4.9087 13.2448L10.9495 6.69376L11.0778 10.8028C11.0921 11.2613 11.4465 11.6474 11.8694 11.6651C12.2924 11.6828 12.6235 11.3254 12.6092 10.8669L12.4182 4.74668C12.4032 4.28725 12.0462 3.90042 11.6239 3.88431Z" fill="white"/>
<path fill-rule="evenodd" clip-rule="evenodd" d="M4.99775 4.48971C4.97591 3.87633 5.4222 3.3898 5.98782 3.41055L11.6324 3.61774C12.1838 3.63877 12.6447 4.13805 12.6642 4.73727L12.8552 10.8579C12.8743 11.4712 12.4257 11.9553 11.8601 11.9316C11.3084 11.9085 10.8508 11.4102 10.8321 10.8118L10.723 7.31676L5.08279 13.4334C4.68691 13.8628 4.04599 13.8179 3.65219 13.3909C3.25839 12.9638 3.21705 12.2687 3.61294 11.8394L9.2532 5.72273L6.03034 5.60449C5.47861 5.58421 5.01906 5.08795 4.99775 4.48971ZM5.97119 3.9437C5.69124 3.93343 5.47847 4.16517 5.48929 4.46912C5.50065 4.78809 5.7531 5.06054 6.04699 5.07134L10.4022 5.23113L3.96076 12.2166C3.78031 12.4123 3.77413 12.7687 4.00002 13.0137C4.22591 13.2586 4.55451 13.2519 4.73496 13.0562L11.1763 6.07076L11.3237 10.7938C11.3337 11.1125 11.5849 11.3862 11.8791 11.3986C12.1593 11.4103 12.373 11.1795 12.3636 10.876L12.1726 4.75609C12.1726 4.7562 12.1726 4.75599 12.1726 4.75609C12.162 4.43666 11.9086 4.16217 11.6156 4.15088C11.6155 4.15088 11.6157 4.15088 11.6156 4.15088L5.97119 3.9437C5.97119 3.9437 5.97119 3.9437 5.97119 3.9437Z" fill="white"/>
</svg>
