<svg width="96" height="96" viewBox="0 0 96 96" fill="none" xmlns="http://www.w3.org/2000/svg">
<g id="&#234;&#183;&#184;&#235;&#163;&#185; 5877">
<g id="Clip path group">
<mask id="mask0_4902_64651" style="mask-type:luminance" maskUnits="userSpaceOnUse" x="0" y="0" width="96" height="96">
<g id="clip-path">
<path id="&#236;&#130;&#172;&#234;&#176;&#129;&#237;&#152;&#149; 130" d="M0 0H96V96H0V0Z" fill="white"/>
</g>
</mask>
<g mask="url(#mask0_4902_64651)">
<g id="&#234;&#183;&#184;&#235;&#163;&#185; 5876">
<path id="&#237;&#140;&#168;&#236;&#138;&#164; 246" d="M81.9385 14.0591C77.4812 9.60141 72.1895 6.06532 66.3655 3.65279C60.5416 1.24025 54.2995 -0.00146484 47.9956 -0.00146484C41.6917 -0.00146484 35.4496 1.24025 29.6257 3.65279C23.8017 6.06532 18.51 9.60141 14.0527 14.0591L47.9979 47.9997L81.9385 14.0591Z" fill="#F6F973"/>
<path id="&#237;&#140;&#168;&#236;&#138;&#164; 247" d="M14.0577 14.0588C9.59995 18.5161 6.06385 23.8078 3.65132 29.6317C1.23879 35.4557 -0.00292969 41.6978 -0.00292969 48.0017C-0.00292969 54.3055 1.23879 60.5477 3.65132 66.3716C6.06385 72.1955 9.59995 77.4872 14.0577 81.9445L47.9982 47.9994L14.0577 14.0588Z" fill="#7BFF8F"/>
<path id="&#237;&#140;&#168;&#236;&#138;&#164; 248" d="M14.0576 81.9401C18.5149 86.3978 23.8066 89.9339 29.6305 92.3464C35.4545 94.759 41.6966 96.0007 48.0005 96.0007C54.3043 96.0007 60.5465 94.759 66.3704 92.3464C72.1944 89.9339 77.4861 86.3978 81.9433 81.9401L47.9982 47.9995L14.0576 81.9401Z" fill="#124F9C"/>
<path id="&#237;&#140;&#168;&#236;&#138;&#164; 249" d="M81.9396 14.0588L47.999 47.9993L81.9396 81.9399C86.3973 77.4826 89.9334 72.1909 92.346 66.367C94.7585 60.543 96.0002 54.3009 96.0002 47.9971C96.0002 41.6932 94.7585 35.4511 92.346 29.6271C89.9334 23.8032 86.3973 18.5115 81.9396 14.0542" fill="#FF7C32"/>
</g>
</g>
</g>
</g>
</svg>
