<svg width="96" height="96" viewBox="0 0 96 96" fill="none" xmlns="http://www.w3.org/2000/svg">
<g id="symbol">
<g clip-path="url(#clip0_4902_64576)">
<rect width="96" height="96" rx="48" fill="#627EEA"/>
<g id="All">
<g id="Developer-Center">
<g id="Group-28">
<g id="Group-29">
<g id="Group-10">
<g id="Group-13">
<g id="Group-46">
<g id="Group-45">
<path id="Oval" d="M48 96C74.5097 96 96 74.5097 96 48C96 21.4903 74.5097 0 48 0C21.4903 0 0 21.4903 0 48C0 74.5097 21.4903 96 48 96Z" fill="#627EEA"/>
<path id="Path" d="M49.4961 11.9934V38.6047L71.9871 48.6561L49.4961 11.9934Z" fill="white" fill-opacity="0.602"/>
<path id="Path_1_" d="M49.4959 11.9934L27.0049 48.6561L49.4959 38.6047V11.9934Z" fill="white"/>
<path id="Path_2_" d="M49.4961 65.8983V83.9803L72.0002 52.842L49.4961 65.8983Z" fill="white" fill-opacity="0.602"/>
<path id="Path_3_" d="M49.4959 83.9803V65.8983L27.0049 52.842L49.4959 83.9803Z" fill="white"/>
<path id="Path_4_" d="M49.4961 61.7124L71.9871 48.6561L49.4961 38.6047V61.7124Z" fill="white" fill-opacity="0.2"/>
</g>
<path id="Path_5_" d="M27.0049 48.6561L49.4959 61.7124V38.6047L27.0049 48.6561Z" fill="white" fill-opacity="0.602"/>
</g>
</g>
</g>
</g>
</g>
</g>
</g>
</g>
</g>
<defs>
<clipPath id="clip0_4902_64576">
<rect width="96" height="96" rx="48" fill="white"/>
</clipPath>
</defs>
</svg>
