<svg width="96" height="96" viewBox="0 0 96 96" fill="none" xmlns="http://www.w3.org/2000/svg">
<rect width="96" height="96" rx="48" fill="white"/>
<path d="M23 65.689H24.8058V75.7462H30.1897V77.2598H23V65.689Z" fill="#4361EE"/>
<path d="M35.6454 65.6891L38.7414 70.9382H38.8686L41.9646 65.6891H44.0204L39.7123 72.7233V77.26H37.8998V72.7233L33.5918 65.6891H35.6476H35.6454Z" fill="#4361EE"/>
<path d="M50.6857 77.2597H48.8799V65.6888H50.6857V77.2597ZM49.7973 77.2597V75.7221H52.6433C53.5384 75.7221 54.2839 75.557 54.8843 75.2269C55.4848 74.8968 55.9335 74.4169 56.2281 73.7828C56.525 73.1508 56.6723 72.3733 56.6723 71.4547C56.6723 70.5361 56.525 69.7738 56.2303 69.144C55.9357 68.5142 55.4982 68.0386 54.9156 67.7107C54.333 67.3849 53.6098 67.222 52.746 67.222H49.7326V65.6845H52.8576C54.0183 65.6845 55.0205 65.9147 55.8598 66.3729C56.6991 66.8333 57.3419 67.4957 57.7884 68.3644C58.2326 69.233 58.4558 70.2624 58.4558 71.4525C58.4558 72.6426 58.2303 73.6894 57.7817 74.5602C57.333 75.4311 56.679 76.0978 55.8218 76.5604C54.9647 77.0229 53.9379 77.2553 52.7415 77.2553H49.7973V77.2597Z" fill="#4361EE"/>
<path d="M62.3548 77.2598L66.6293 65.689H68.7253L72.9999 77.2598H71.078L67.7208 67.8021H67.6271L64.27 77.2598H62.3525H62.3548ZM70.77 72.7275V74.2021H64.5847V72.7275H70.77Z" fill="#4361EE"/>
<path d="M72.5586 61.7748H23.0273V18.2604H27.0318V57.8766H72.5586V61.7748Z" fill="#4361EE"/>
<path d="M35.4722 18.2603H31.4678V52.8316H35.4722V18.2603Z" fill="#4361EE"/>
<path d="M72.6924 52.6821H39.8486V18H58.6812C66.4067 18 72.6924 24.1155 72.6924 31.6318V52.6821ZM43.8553 48.7861H68.6879V31.6318C68.6879 26.2655 64.1991 21.8982 58.6835 21.8982H43.8553V48.7861Z" fill="#4361EE"/>
</svg>
