<svg width="96" height="96" viewBox="0 0 96 96" fill="none" xmlns="http://www.w3.org/2000/svg">
<rect width="96" height="96" rx="48" fill="#05274C"/>
<g clip-path="url(#clip0_5153_61483)">
<path d="M24.5 7L23.4537 8.82278L1 47.8696L15.9685 73.9014L23.4537 86.9184L24.5 88.7391H71.5L86.4685 62.7093L93.9517 49.6923L95 47.8696L93.9517 46.0488L71.5 7H24.5Z" fill="#1C1C1C"/>
<path d="M24.5 7L23.4537 8.82278L1 47.8696L15.9685 73.9014L23.4537 86.9184L24.5 88.7391H71.5L86.4685 62.7093L93.9517 49.6923L95 47.8696L93.9517 46.0488L71.5 7H24.5Z" fill="#05274C"/>
<path d="M89.7624 49.6895L84.3737 59.0609H43.6595L49.0399 49.6895H89.7624ZM58.5871 72.0779H36.166L41.5547 62.7065H63.9757L58.5871 72.0779Z" fill="#85BCFA"/>
<path d="M38.4202 34.8547L24.5 59.0638L19.1113 49.6924L33.0315 25.4833L38.4202 34.8547Z" fill="#2470ED"/>
<path d="M45.9054 47.8698L25.5381 83.271L20.1494 73.8996L40.5065 38.4943L45.9054 47.8698Z" fill="#2470ED"/>
<path d="M49.0466 46.0468L28.6895 10.6436H39.4668L59.8239 46.0468H49.0466ZM64.013 46.0468L52.1874 25.4833H62.9647L74.7924 46.0468H64.013Z" fill="white"/>
</g>
<defs>
<clipPath id="clip0_5153_61483">
<rect width="94" height="81.7391" fill="white" transform="translate(1 7)"/>
</clipPath>
</defs>
</svg>
