<svg width="96" height="96" viewBox="0 0 96 96" fill="none" xmlns="http://www.w3.org/2000/svg">
<g clip-path="url(#clip0_4902_64676)">
<rect width="96" height="96" rx="48" fill="#2775CA"/>
<path d="M48 96C74.6002 96 96 74.6002 96 48C96 21.3998 74.6002 0 48 0C21.3998 0 0 21.3998 0 48C0 74.6002 21.3998 96 48 96Z" fill="#2775CA"/>
<path d="M61.2002 55.5998C61.2002 48.6 57.0002 46.2 48.6002 45.2002C42.6002 44.4 41.4002 42.8002 41.4002 39.9998C41.4002 37.1995 43.4004 35.4 47.4002 35.4C51.0002 35.4 53.0004 36.6 54.0002 39.6C54.2004 40.2 54.8004 40.5998 55.4004 40.5998H58.6001C59.4002 40.5998 60.0002 39.9998 60.0002 39.2002V39C59.2001 34.5998 55.6001 31.2 51.0002 30.8002V26.0002C51.0002 25.2 50.4002 24.6 49.4004 24.3998H46.4004C45.6002 24.3998 45.0002 24.9998 44.8001 26.0002V30.6C38.8001 31.4002 35.0004 35.4 35.0004 40.4002C35.0004 47.0002 39.0002 49.5998 47.4002 50.6002C53.0004 51.6 54.8004 52.8 54.8004 56.0002C54.8004 59.2003 52.0001 61.4002 48.2004 61.4002C43.0001 61.4002 41.2001 59.1998 40.6001 56.1998C40.4004 55.4002 39.8004 54.9998 39.2004 54.9998H35.8001C35.0004 54.9998 34.4004 55.5998 34.4004 56.4V56.6002C35.2001 61.5998 38.4002 65.1998 45.0002 66.2002V71.0002C45.0002 71.7998 45.6002 72.3998 46.6001 72.6H49.6001C50.4002 72.6 51.0002 72 51.2004 71.0002V66.2002C57.2004 65.1998 61.2002 60.9998 61.2002 55.5998Z" fill="white"/>
<path d="M37.8 76.5998C22.2 71.0002 14.1998 53.6002 20.0002 38.1998C23.0002 29.7998 29.6002 23.4 37.8 20.4C38.6002 20.0002 39 19.4002 39 18.3998V15.6C39 14.7998 38.6002 14.1998 37.8 14.0002C37.5998 14.0002 37.2 14.0002 36.9998 14.1998C18 20.1998 7.59983 40.4002 13.5998 59.4C17.1998 70.5998 25.8 79.2 36.9998 82.8C37.8 83.1998 38.6002 82.8 38.7998 81.9998C39 81.8002 39 81.6 39 81.2002V78.3998C39 77.7998 38.4 77.0002 37.8 76.5998ZM59.0002 14.1998C58.2 13.8 57.3998 14.1998 57.2002 15C57 15.2002 57 15.3998 57 15.8002V18.6C57 19.4002 57.6 20.1998 58.2 20.6002C73.8 26.1998 81.8002 43.5998 75.9998 59.0002C72.9998 67.4002 66.3998 73.8 58.2 76.8C57.3998 77.1998 57 77.7998 57 78.8002V81.6C57 82.4002 57.3998 83.0002 58.2 83.1998C58.4002 83.1998 58.8 83.1998 59.0002 83.0002C78 77.0002 88.4002 56.7998 82.4002 37.8C78.8002 26.4 69.9998 17.7998 59.0002 14.1998Z" fill="white"/>
</g>
<defs>
<clipPath id="clip0_4902_64676">
<rect width="96" height="96" rx="48" fill="white"/>
</clipPath>
</defs>
</svg>
