<svg width="96" height="96" viewBox="0 0 96 96" fill="none" xmlns="http://www.w3.org/2000/svg">
<rect width="96" height="96" rx="48" fill="white"/>
<g clip-path="url(#clip0_5228_71544)">
<path fill-rule="evenodd" clip-rule="evenodd" d="M20.7463 15.3674L5.06544 48.305C5.00577 48.4275 4.98686 48.5659 5.01148 48.6999C5.0361 48.834 5.10295 48.9566 5.20226 49.0499L47.5524 89.6315C47.6727 89.7469 47.8329 89.8113 47.9996 89.8113C48.1662 89.8113 48.3265 89.7469 48.4468 89.6315L90.7969 49.0524C90.8962 48.9591 90.963 48.8365 90.9877 48.7025C91.0123 48.5684 90.9934 48.43 90.9337 48.3075L75.2529 15.37C75.2023 15.2593 75.1209 15.1656 75.0185 15.1C74.916 15.0344 74.7969 14.9997 74.6752 15H21.329C21.2068 14.9985 21.0867 15.0324 20.9833 15.0976C20.8799 15.1628 20.7976 15.2565 20.7463 15.3674Z" fill="#50AF95"/>
<path fill-rule="evenodd" clip-rule="evenodd" d="M53.441 51.6878C53.137 51.7106 51.5661 51.8044 48.0621 51.8044C45.275 51.8044 43.2963 51.7208 42.602 51.6878C31.8314 51.214 23.7921 49.3391 23.7921 47.0943C23.7921 44.8495 31.8314 42.9771 42.602 42.4957V49.8205C43.3064 49.8712 45.3232 49.9903 48.1102 49.9903C51.4546 49.9903 53.1294 49.8509 53.4309 49.8231V42.5008C64.1787 42.9796 72.2002 44.8546 72.2002 47.0943C72.2002 49.3341 64.1812 51.209 53.4309 51.6853L53.441 51.6878ZM53.441 41.7432V35.1886H68.4403V25.1934H27.6028V35.1886H42.5995V41.7407C30.4101 42.3006 21.2433 44.7152 21.2433 47.6086C21.2433 50.5021 30.4101 52.9141 42.5995 53.4766V74.4806H53.4385V53.469C65.6001 52.9091 74.7516 50.497 74.7516 47.6061C74.7516 44.7152 65.6077 42.3032 53.4385 41.7407L53.441 41.7432Z" fill="white"/>
</g>
<defs>
<clipPath id="clip0_5228_71544">
<rect width="86" height="74.8114" fill="white" transform="translate(5 15)"/>
</clipPath>
</defs>
</svg>
