<svg width="86" height="75" viewBox="0 0 86 75" fill="none" xmlns="http://www.w3.org/2000/svg">
<g id="tether-usdt-logo 1" clip-path="url(#clip0_4902_64682)">
<path id="Vector" fill-rule="evenodd" clip-rule="evenodd" d="M15.7463 0.36743L0.0654439 33.305C0.0057739 33.4275 -0.0131352 33.5659 0.011482 33.6999C0.0360992 33.834 0.102951 33.9566 0.202262 34.0499L42.5524 74.6315C42.6727 74.7469 42.8329 74.8113 42.9996 74.8113C43.1662 74.8113 43.3265 74.7469 43.4468 74.6315L85.7969 34.0524C85.8962 33.9591 85.963 33.8365 85.9877 33.7025C86.0123 33.5684 85.9934 33.43 85.9337 33.3075L70.2529 0.369963C70.2023 0.259345 70.1209 0.165637 70.0185 0.100039C69.916 0.0344417 69.7969 -0.000271352 69.6752 4.90323e-05H16.329C16.2068 -0.00147157 16.0867 0.0324053 15.9833 0.097593C15.8799 0.162781 15.7976 0.256495 15.7463 0.36743Z" fill="#50AF95"/>
<path id="Vector_2" fill-rule="evenodd" clip-rule="evenodd" d="M48.4409 36.6874C48.1369 36.7102 46.566 36.8039 43.0619 36.8039C40.2749 36.8039 38.2961 36.7203 37.6019 36.6874C26.8313 36.2136 18.792 34.3387 18.792 32.0939C18.792 29.849 26.8313 27.9767 37.6019 27.4953V34.8201C38.3063 34.8708 40.3231 34.9898 43.1101 34.9898C46.4545 34.9898 48.1293 34.8505 48.4308 34.8226V27.5003C59.1786 27.9792 67.2001 29.8541 67.2001 32.0939C67.2001 34.3336 59.1811 36.2085 48.4308 36.6849L48.4409 36.6874ZM48.4409 26.7428V20.1882H63.4402V10.1929H22.6026V20.1882H37.5994V26.7402C25.4099 27.3002 16.2432 29.7148 16.2432 32.6082C16.2432 35.5016 25.4099 37.9137 37.5994 38.4762V59.4802H48.4384V38.4686C60.5999 37.9086 69.7515 35.4966 69.7515 32.6057C69.7515 29.7148 60.6075 27.3027 48.4384 26.7402L48.4409 26.7428Z" fill="white"/>
</g>
<defs>
<clipPath id="clip0_4902_64682">
<rect width="86" height="74.8114" fill="white"/>
</clipPath>
</defs>
</svg>
